<svg width="18" height="14" viewBox="0 0 18 14" fill="none" xmlns="http://www.w3.org/2000/svg">
<path d="M7.7071 2.37373C8.09762 1.98321 8.09762 1.35004 7.7071 0.959519C7.31657 0.568995 6.68341 0.568995 6.29288 0.959519L0.95955 6.29285C0.764288 6.48811 0.666656 6.74404 0.666656 6.99996C0.666656 7.13555 0.693642 7.26484 0.742535 7.38274C0.791335 7.50069 0.863673 7.61119 0.95955 7.70707L6.29288 13.0404C6.68341 13.4309 7.31657 13.4309 7.7071 13.0404C8.09762 12.6499 8.09762 12.0167 7.7071 11.6262L4.08087 7.99996H17C17.5523 7.99996 18 7.55224 18 6.99996C18 6.44767 17.5523 5.99996 17 5.99996H4.08087L7.7071 2.37373Z" fill="white"/>
</svg>
